<svg width="50" height="41" viewBox="0 0 50 41" fill="none" xmlns="http://www.w3.org/2000/svg">
<path d="M4.48611 40.0615C3.20833 40.0615 2.14167 39.6215 1.28611 38.7415C0.428704 37.8596 0 36.7615 0 35.4472V4.67581C0 3.36152 0.428704 2.26438 1.28611 1.38438C2.14167 0.502475 3.20833 0.0615234 4.48611 0.0615234H45.5139C46.7917 0.0615234 47.8583 0.502475 48.7139 1.38438C49.5713 2.26438 50 3.36152 50 4.67581V35.4472C50 36.7615 49.5722 37.8587 48.7167 38.7387C47.8593 39.6206 46.7917 40.0615 45.5139 40.0615H4.48611ZM25 20.3901L47.2222 5.44724L46.3667 2.91867L25 17.2044L3.63333 2.91867L2.77778 5.44724L25 20.3901Z" fill="white"/>
</svg>
