<svg width="50" height="50" viewBox="0 0 50 50" fill="none" xmlns="http://www.w3.org/2000/svg">
<path d="M27.1417 4.16675C29.4854 4.173 30.675 4.1855 31.7021 4.21466L32.1063 4.22925C32.5729 4.24591 33.0333 4.26675 33.5896 4.29175C35.8062 4.39591 37.3188 4.74591 38.6458 5.2605C40.0208 5.78966 41.1792 6.50633 42.3375 7.66258C43.3969 8.70403 44.2166 9.96381 44.7396 11.3542C45.2542 12.6813 45.6042 14.1938 45.7083 16.4126C45.7333 16.9667 45.7542 17.4272 45.7708 17.8959L45.7833 18.3001C45.8146 19.3251 45.8271 20.5147 45.8313 22.8584L45.8333 24.4126V27.1417C45.8385 28.6613 45.8225 30.1809 45.7854 31.7001L45.7729 32.1042C45.7563 32.573 45.7354 33.0334 45.7104 33.5876C45.6063 35.8063 45.2521 37.3167 44.7396 38.6459C44.2181 40.0371 43.3982 41.2972 42.3375 42.3376C41.2958 43.3966 40.0361 44.2162 38.6458 44.7397C37.3188 45.2542 35.8062 45.6042 33.5896 45.7084C33.0952 45.7317 32.6008 45.7525 32.1063 45.7709L31.7021 45.7834C30.675 45.8126 29.4854 45.8272 27.1417 45.8313L25.5875 45.8334H22.8604C21.3401 45.8387 19.8198 45.8227 18.3 45.7855L17.8958 45.773C17.4013 45.7543 16.9068 45.7327 16.4125 45.7084C14.1958 45.6042 12.6833 45.2542 11.3542 44.7397C9.9639 44.2175 8.70462 43.3977 7.66458 42.3376C6.60426 41.2965 5.7838 40.0367 5.26042 38.6459C4.74584 37.3188 4.39583 35.8063 4.29167 33.5876C4.26846 33.0932 4.24762 32.5988 4.22917 32.1042L4.21875 31.7001C4.18036 30.1809 4.163 28.6614 4.16667 27.1417V22.8584C4.16085 21.3388 4.17613 19.8192 4.2125 18.3001L4.22709 17.8959C4.24375 17.4272 4.26459 16.9667 4.28959 16.4126C4.39375 14.1938 4.74375 12.6834 5.25833 11.3542C5.78149 9.96238 6.60359 8.70221 7.66667 7.66258C8.70644 6.60315 9.96488 5.78339 11.3542 5.2605C12.6833 4.74591 14.1938 4.39591 16.4125 4.29175C16.9667 4.26675 17.4292 4.24591 17.8958 4.22925L18.3 4.21675C19.8192 4.17973 21.3387 4.16376 22.8583 4.16883L27.1417 4.16675ZM25 14.5834C22.2373 14.5834 19.5878 15.6809 17.6343 17.6344C15.6808 19.5879 14.5833 22.2374 14.5833 25.0001C14.5833 27.7628 15.6808 30.4123 17.6343 32.3658C19.5878 34.3193 22.2373 35.4167 25 35.4167C27.7627 35.4167 30.4122 34.3193 32.3657 32.3658C34.3192 30.4123 35.4167 27.7628 35.4167 25.0001C35.4167 22.2374 34.3192 19.5879 32.3657 17.6344C30.4122 15.6809 27.7627 14.5834 25 14.5834ZM25 18.7501C25.8208 18.7499 26.6335 18.9115 27.3919 19.2254C28.1502 19.5394 28.8393 19.9997 29.4197 20.5799C30.0002 21.1602 30.4607 21.8491 30.7749 22.6073C31.0891 23.3656 31.2509 24.1783 31.251 24.999C31.2512 25.8198 31.0897 26.6326 30.7757 27.3909C30.4617 28.1492 30.0015 28.8383 29.4212 29.4188C28.8409 29.9992 28.152 30.4597 27.3938 30.7739C26.6355 31.0881 25.8228 31.2499 25.0021 31.2501C23.3445 31.2501 21.7548 30.5916 20.5827 29.4195C19.4106 28.2474 18.7521 26.6577 18.7521 25.0001C18.7521 23.3425 19.4106 21.7528 20.5827 20.5807C21.7548 19.4086 23.3445 18.7501 25.0021 18.7501M35.9396 11.4584C35.2489 11.4584 34.5865 11.7328 34.0982 12.2212C33.6098 12.7095 33.3354 13.3719 33.3354 14.0626C33.3354 14.7532 33.6098 15.4156 34.0982 15.904C34.5865 16.3924 35.2489 16.6667 35.9396 16.6667C36.6302 16.6667 37.2926 16.3924 37.781 15.904C38.2694 15.4156 38.5438 14.7532 38.5438 14.0626C38.5438 13.3719 38.2694 12.7095 37.781 12.2212C37.2926 11.7328 36.6302 11.4584 35.9396 11.4584Z" fill="white"/>
</svg>
