<svg width="40" height="50" viewBox="0 0 40 50" fill="none" xmlns="http://www.w3.org/2000/svg">
<path d="M20 23.75C18.1056 23.75 16.2888 23.0915 14.9492 21.9194C13.6097 20.7473 12.8571 19.1576 12.8571 17.5C12.8571 15.8424 13.6097 14.2527 14.9492 13.0806C16.2888 11.9085 18.1056 11.25 20 11.25C21.8944 11.25 23.7112 11.9085 25.0508 13.0806C26.3903 14.2527 27.1429 15.8424 27.1429 17.5C27.1429 18.3208 26.9581 19.1335 26.5991 19.8918C26.2402 20.6501 25.714 21.3391 25.0508 21.9194C24.3875 22.4998 23.6001 22.9602 22.7335 23.2742C21.8668 23.5883 20.938 23.75 20 23.75ZM20 0C14.6957 0 9.60859 1.84374 5.85786 5.12563C2.10714 8.40752 0 12.8587 0 17.5C0 30.625 20 50 20 50C20 50 40 30.625 40 17.5C40 12.8587 37.8929 8.40752 34.1421 5.12563C30.3914 1.84374 25.3043 0 20 0Z" fill="#999999"/>
</svg>
