<svg width="40" height="50" viewBox="0 0 40 50" fill="none" xmlns="http://www.w3.org/2000/svg">
<path d="M6.7479 1.09704L9.82501 0.237027C12.705 -0.567982 15.7849 0.734533 17.0192 3.27956L19.4763 8.34962C20.5478 10.5571 19.9535 13.1547 18.0078 14.7697L12.5993 19.2648C12.9335 21.9548 13.965 24.6023 15.6964 27.2073C17.3416 29.7278 19.5479 31.9339 22.1849 33.6949L28.6877 31.7949C31.1505 31.0774 33.8333 31.9049 35.3447 33.8474L38.8647 38.3725C40.6247 40.6325 40.3075 43.7475 38.1276 45.6626L35.7904 47.7151C33.4648 49.7576 30.1448 50.5001 27.0705 49.6601C19.8163 47.6801 13.1478 41.8025 7.06218 32.0274C0.967957 22.2373 -1.18059 13.9272 0.610818 7.10711C1.3651 4.23707 3.70221 1.94955 6.75361 1.09704" fill="#999999"/>
</svg>
