<svg width="50" height="51" viewBox="0 0 50 51" fill="none" xmlns="http://www.w3.org/2000/svg">
<path d="M8.43487 1.16003L12.2813 0.300016C15.8812 -0.504994 19.7312 0.797521 21.274 3.34255L24.3454 8.41261C25.6847 10.6201 24.9418 13.2177 22.5097 14.8327L15.7491 19.3277C16.1669 22.0178 17.4562 24.6653 19.6205 27.2703C21.677 29.7908 24.4349 31.9969 27.7311 33.7579L35.8596 31.8579C38.9381 31.1404 42.2917 31.9679 44.1809 33.9104L48.5809 38.4355C50.7809 40.6955 50.3844 43.8105 47.6595 45.7255L44.7381 47.7781C41.8309 49.8206 37.681 50.5631 33.8382 49.7231C24.7704 47.7431 16.4348 41.8655 8.82772 32.0904C1.20995 22.3003 -1.47574 13.9902 0.763522 7.1701C1.70637 4.30006 4.62777 2.01254 8.44201 1.16003" fill="white"/>
</svg>
